<?xml version="1.0" standalone="no"?>
<!DOCTYPE svg PUBLIC "-//W3C//DTD SVG 20010904//EN"
 "http://www.w3.org/TR/2001/REC-SVG-20010904/DTD/svg10.dtd">
<svg version="1.0" xmlns="http://www.w3.org/2000/svg"
 width="144.000000pt" height="138.000000pt" viewBox="0 0 144.000000 138.000000"
 preserveAspectRatio="xMidYMid meet">

<g transform="translate(0.000000,138.000000) scale(0.100000,-0.100000)"
fill="#000000" stroke="none">
<path d="M0 690 l0 -690 720 0 720 0 0 690 0 690 -720 0 -720 0 0 -690z m810
390 c19 -5 53 -21 75 -34 l39 -24 -34 -14 c-19 -8 -60 -36 -89 -62 -82 -69
-130 -89 -217 -89 l-72 0 66 -23 c37 -12 132 -54 212 -93 79 -39 169 -78 200
-87 59 -18 146 -23 195 -11 l30 7 -30 -16 c-44 -25 -148 -29 -225 -10 -36 9
-139 52 -230 96 -210 100 -256 114 -374 108 -87 -4 -89 -4 -56 10 19 8 71 17
115 20 66 3 85 8 105 27 14 13 52 39 85 59 86 51 55 45 -38 -8 -42 -24 -79
-40 -82 -35 -8 13 19 70 51 108 57 68 176 99 274 71z m200 -135 c70 -25 76
-35 38 -58 -18 -11 -50 -34 -70 -52 -21 -17 -55 -37 -77 -43 -46 -14 -121 -16
-121 -3 0 5 15 22 33 36 l32 27 -39 -21 c-45 -26 -53 -22 -37 18 17 40 61 80
107 96 51 18 82 18 134 0z m152 -141 l30 -16 -28 -19 c-16 -11 -44 -30 -63
-44 -54 -40 -152 -48 -121 -10 11 13 10 14 -4 9 -19 -7 -21 8 -5 37 28 53 128
76 191 43z m-622 -34 c36 -13 126 -53 200 -90 74 -37 160 -76 190 -86 58 -19
142 -24 200 -12 l35 7 -30 -17 c-23 -13 -53 -17 -130 -17 -111 1 -149 14 -372
124 -150 74 -226 94 -329 89 -46 -2 -84 -3 -84 -2 0 2 21 10 48 19 64 21 188
14 272 -15z m-130 -280 c18 -11 5 -25 -23 -25 -15 0 -22 -6 -22 -20 0 -15 7
-20 32 -21 28 -1 34 3 47 37 9 22 22 39 30 39 8 0 22 -20 33 -45 l18 -45 5 42
c6 49 25 60 41 24 7 -14 15 -26 19 -26 4 0 12 12 19 26 17 38 36 24 39 -29 2
-37 0 -47 -12 -47 -10 0 -16 9 -16 22 0 21 0 21 -14 3 -12 -16 -16 -17 -30 -6
-13 11 -16 11 -16 -1 0 -12 -19 -15 -107 -13 -60 1 -111 2 -115 3 -5 1 -8 18
-8 37 0 46 41 70 80 45z m330 -5 c0 -9 -10 -16 -27 -16 -25 -2 -25 -2 -5 -6
13 -3 21 -10 19 -16 -3 -7 -10 -11 -16 -9 -6 1 -11 -2 -11 -8 0 -6 9 -10 20
-10 11 0 20 -4 20 -10 0 -5 -18 -10 -40 -10 l-40 0 0 50 0 50 40 0 c29 0 40
-4 40 -15z m42 -22 c2 -30 8 -39 25 -41 19 -3 22 2 25 35 4 51 33 54 33 3 1
-28 5 -36 22 -38 19 -3 22 2 25 35 4 55 31 52 38 -5 l5 -42 18 45 c11 25 25
45 33 45 9 0 54 -77 54 -94 0 -1 -70 -3 -155 -4 l-155 -3 0 50 c0 38 4 51 14
51 10 0 16 -13 18 -37z m-408 -175 l16 -22 0 22 c0 12 6 22 14 22 10 0 16 -14
18 -42 l3 -43 23 43 c12 23 28 42 35 42 14 0 61 -89 52 -98 -3 -4 -15 -1 -25
6 -24 15 -50 16 -50 2 0 -20 -61 -10 -81 13 l-18 22 -1 -22 c0 -14 -6 -23 -15
-23 -11 0 -15 12 -15 50 0 56 17 67 44 28z m246 7 c0 -8 -7 -15 -15 -15 -10 0
-15 -11 -15 -35 0 -24 -5 -35 -15 -35 -10 0 -15 10 -15 34 0 21 -6 36 -15 40
-30 11 -14 26 30 26 33 0 45 -4 45 -15z m40 -20 c0 -24 5 -35 15 -35 10 0 15
11 15 35 0 25 4 35 16 35 12 0 14 -9 12 -41 -3 -48 -23 -65 -61 -55 -24 6 -27
11 -27 51 0 33 4 45 15 45 10 0 15 -11 15 -35z m149 26 c9 -6 12 -19 8 -40 -9
-44 7 -38 26 9 20 52 43 52 65 0 19 -44 34 -53 32 -17 -4 42 0 57 15 57 10 0
15 -10 15 -34 0 -27 4 -34 23 -38 12 -2 33 -1 47 3 14 4 18 7 9 8 -27 2 -44
28 -29 46 17 20 70 20 70 -1 0 -11 -6 -14 -20 -9 -11 4 -20 2 -20 -4 0 -6 9
-11 19 -11 23 0 35 -28 21 -45 -13 -16 -190 -20 -190 -5 0 13 -37 13 -45 0 -9
-14 -58 -12 -74 3 -11 10 -14 10 -18 0 -3 -7 -11 -13 -19 -13 -10 0 -14 14
-14 50 0 50 0 50 33 50 17 0 38 -4 46 -9z"/>
<path d="M765 270 c4 -6 11 -8 16 -5 14 9 11 15 -7 15 -8 0 -12 -5 -9 -10z"/>
</g>
</svg>
